<svg xmlns="http://www.w3.org/2000/svg"  viewBox="0 0 48 48" width="48px" height="48px"><path d="M 24.490234 0.5390625 A 1.50015 1.50015 0 0 0 23.015625 1.9960938 C 21.538058 2.0650326 20.106456 2.2929119 18.736328 2.6640625 A 1.50015 1.50015 0 0 0 17.464844 1.9921875 A 1.50015 1.50015 0 0 0 15.986328 3.5136719 L 15.986328 3.6308594 C 12.411439 5.2010824 9.442939 7.7882161 7.4921875 11 C 5.7184352 10.034491 4.0761719 9.9550781 4.0761719 9.9550781 L 10.017578 24.466797 C 10.288858 28.405547 11.671491 32.986145 13.806641 36.880859 C 16.19548 41.238329 19.603169 44.957031 23.984375 44.957031 C 28.365581 44.957031 31.775223 41.238329 34.164062 36.880859 C 36.457318 32.697745 37.877167 27.727139 37.988281 23.607422 L 43.744141 8.9765625 C 43.744141 8.9765625 41.863527 9.0707614 39.951172 10.246094 C 38.210308 7.6830155 35.800391 5.5667166 32.953125 4.1132812 L 32.953125 3.4863281 A 1.50015 1.50015 0 0 0 31.429688 1.9648438 A 1.50015 1.50015 0 0 0 30.058594 2.9160156 C 28.76732 2.5012318 27.412924 2.2190714 26.013672 2.0761719 L 26.013672 2.0605469 A 1.50015 1.50015 0 0 0 24.490234 0.5390625 z M 23.013672 5.0039062 L 23.013672 7.5371094 C 21.528637 7.5889135 20.188057 7.7577116 18.986328 8.0351562 L 18.986328 5.7109375 C 20.265219 5.3186463 21.615505 5.0808702 23.013672 5.0039062 z M 26.013672 5.0976562 C 27.387994 5.262743 28.710258 5.5829738 29.953125 6.0527344 L 29.953125 8.2773438 C 28.788643 7.9268364 27.476468 7.6926106 26.013672 7.5800781 L 26.013672 5.0976562 z M 15.986328 6.9707031 L 15.986328 9.0546875 C 14.359403 9.8556687 13.112279 10.944938 12.214844 12.28125 C 11.682259 13.074287 11.279448 13.925553 10.966797 14.818359 C 10.647974 14.091249 10.264768 13.468959 9.8359375 12.943359 C 11.243949 10.45166 13.380235 8.3797721 15.986328 6.9707031 z M 32.953125 7.5605469 C 34.892865 8.7950131 36.523459 10.412547 37.724609 12.300781 C 37.339218 12.83029 36.998181 13.446441 36.71875 14.158203 C 36.451353 13.522478 36.146567 12.904033 35.757812 12.322266 C 35.047829 11.259782 34.114001 10.352395 32.949219 9.6171875 A 1.50015 1.50015 0 0 0 32.953125 9.4863281 L 32.953125 7.5605469 z M 23.984375 10.5 C 29.387543 10.5 31.863517 11.892962 33.263672 13.988281 C 34.663827 16.083601 35.009766 19.311936 35.009766 23.087891 C 35.009766 26.576128 33.672363 31.537423 31.533203 35.439453 C 29.394043 39.341484 26.539169 41.957031 23.984375 41.957031 C 21.429581 41.957031 18.57666 39.341484 16.4375 35.439453 C 14.29834 31.537423 12.960936 26.576128 12.960938 23.087891 C 12.960938 19.259955 13.308363 16.032883 14.705078 13.953125 C 16.101793 11.873367 18.576721 10.5 23.984375 10.5 z M 42.908203 18.660156 L 39.966797 26.015625 L 39.960938 30.998047 L 39.480469 30.998047 A 1.50015 1.50015 0 1 0 39.478516 33.998047 L 39.958984 33.998047 L 39.955078 36.984375 L 37.505859 36.982422 A 1.50015 1.50015 0 1 0 37.503906 39.982422 L 39.951172 39.984375 L 39.949219 41.988281 L 33.945312 41.992188 C 33.116312 41.992188 32.444313 42.665141 32.445312 43.494141 C 32.445312 44.322141 33.117312 44.992187 33.945312 44.992188 L 33.947266 44.992188 L 40.949219 44.988281 C 42.052219 44.987281 42.947219 44.093234 42.949219 42.990234 L 42.953125 39.986328 L 43.46875 39.986328 A 1.50015 1.50015 0 1 0 43.470703 36.986328 L 42.955078 36.986328 L 42.958984 34.001953 L 43.46875 34.001953 A 1.50015 1.50015 0 1 0 43.470703 31.001953 L 42.962891 31.001953 L 42.974609 19.882812 C 42.974609 19.470813 42.938203 19.066156 42.908203 18.660156 z M 4.9667969 19.828125 C 4.9667969 19.842125 4.9648437 19.856094 4.9648438 19.871094 L 4.9589844 30.990234 L 4.5429688 30.990234 A 1.50015 1.50015 0 1 0 4.5449219 33.990234 L 4.9570312 33.990234 L 4.9550781 36.974609 L 4.5429688 36.974609 A 1.50015 1.50015 0 1 0 4.5449219 39.974609 L 4.953125 39.974609 L 4.9511719 42.962891 C 4.9501719 44.064891 5.8413594 44.958891 6.9433594 44.962891 L 13.958984 44.988281 L 13.964844 44.988281 C 14.791844 44.988281 15.461844 44.320141 15.464844 43.494141 C 15.467844 42.665141 14.79675 41.991281 13.96875 41.988281 L 7.9492188 41.96875 L 7.9511719 39.972656 L 10.507812 39.972656 A 1.50015 1.50015 0 1 0 10.507812 36.972656 L 7.953125 36.972656 L 7.9550781 33.988281 L 8.5332031 33.988281 A 1.50015 1.50015 0 1 0 8.53125 30.988281 L 7.9570312 30.988281 L 7.9609375 27.097656 L 4.9667969 19.828125 z M 18.34375 22 A 1.977 2 0 0 0 16.369141 24 L 15 24 C 15 25.78 16.583047 27.015094 18.498047 26.996094 C 20.359047 26.978094 21.984 25.556 22 24 L 20.318359 24 A 1.977 2 0 0 0 18.34375 22 z M 30.34375 22.003906 A 1.977 2 0 0 0 28.369141 24.003906 L 27 24.003906 C 27 25.783906 28.583047 27.017047 30.498047 26.998047 C 32.359047 26.980047 33.984 25.559906 34 24.003906 L 32.318359 24.003906 A 1.977 2 0 0 0 30.34375 22.003906 z M 24.861328 30.013672 C 24.531984 30.025578 24.219703 30.042969 23.970703 30.042969 C 22.954703 30.042969 21 29.799609 21 30.599609 C 21 31.399609 22.6 31.5 24 33 C 25.3 31.6 26.984375 31.466016 26.984375 30.666016 C 26.984375 29.991016 25.849359 29.977953 24.861328 30.013672 z M 22 34 C 20.7 34 19 36 19 36 C 19 36 20.9 39 24 39 C 27.1 39 29 36 29 36 C 29 36 27 34 26 34 L 22 34 z"/></svg>